<svg width="33" height="33" viewBox="0 0 33 33" fill="none" xmlns="http://www.w3.org/2000/svg">
<circle cx="16.5" cy="16.5" r="15.5" stroke="#ECEEF6" stroke-width="2"/>
<path d="M22.2653 11.8198C22.261 11.7628 22.2133 11.7188 22.1562 11.7188H20.7344C20.4323 11.7188 20.1875 11.4739 20.1875 11.1719C20.1875 9.42286 18.7645 8 17.0156 8C15.2667 8 13.8437 9.42286 13.8437 11.1719C13.8437 11.4739 13.5989 11.7188 13.2969 11.7188H11.875C11.8179 11.7188 11.7702 11.7628 11.7659 11.8198L11.0003 21.8823C10.998 21.9126 11.0084 21.9426 11.0292 21.9649C11.0499 21.9873 11.079 22 11.1094 22H22.9219C22.9523 22 22.9814 21.9873 23.002 21.965C23.0227 21.9427 23.0332 21.9127 23.0309 21.8824L22.2653 11.8198ZM14.7187 11.1719C14.7187 9.90542 15.749 8.875 17.0156 8.875C18.2822 8.875 19.3125 9.90542 19.3125 11.1719C19.3125 11.4739 19.0676 11.7188 18.7656 11.7188H15.2656C14.9636 11.7188 14.7187 11.4739 14.7187 11.1719ZM14.2812 14.7812C13.678 14.7812 13.1875 14.2906 13.1875 13.6875C13.1875 13.5941 13.1975 13.5028 13.2175 13.4151C13.3246 12.9459 13.8437 13.2063 13.8437 13.6875C13.8437 13.9288 14.0401 14.125 14.2812 14.125C14.5224 14.125 14.7187 13.9288 14.7187 13.6875C14.7187 13.2066 15.2369 12.9468 15.3447 13.4155C15.3649 13.5032 15.375 13.5945 15.375 13.6875C15.375 14.2906 14.8844 14.7812 14.2812 14.7812ZM19.75 14.7812C19.1468 14.7812 18.6562 14.2906 18.6562 13.6875C18.6562 13.5941 18.6662 13.5028 18.6863 13.4151C18.7933 12.9459 19.3125 13.2063 19.3125 13.6875C19.3125 13.9288 19.5088 14.125 19.75 14.125C19.9912 14.125 20.1875 13.9288 20.1875 13.6875C20.1875 13.2066 20.7056 12.9468 20.8135 13.4155C20.8336 13.5032 20.8437 13.5945 20.8437 13.6875C20.8437 14.2906 20.3532 14.7812 19.75 14.7812Z" fill="#59AAF1"/>
<path d="M22.2653 11.8198C22.261 11.7628 22.2133 11.7188 22.1562 11.7188H20.7344C20.4323 11.7188 20.1875 11.4739 20.1875 11.1719C20.1875 9.42286 18.7645 8 17.0156 8C15.2667 8 13.8437 9.42286 13.8437 11.1719C13.8437 11.4739 13.5989 11.7188 13.2969 11.7188H11.875C11.8179 11.7188 11.7702 11.7628 11.7659 11.8198L11.0003 21.8823C10.998 21.9126 11.0084 21.9426 11.0292 21.9649C11.0499 21.9873 11.079 22 11.1094 22H22.9219C22.9523 22 22.9814 21.9873 23.002 21.965C23.0227 21.9427 23.0332 21.9127 23.0309 21.8824L22.2653 11.8198ZM14.7187 11.1719C14.7187 9.90542 15.749 8.875 17.0156 8.875C18.2822 8.875 19.3125 9.90542 19.3125 11.1719C19.3125 11.4739 19.0676 11.7188 18.7656 11.7188H15.2656C14.9636 11.7188 14.7187 11.4739 14.7187 11.1719ZM14.2812 14.7812C13.678 14.7812 13.1875 14.2906 13.1875 13.6875C13.1875 13.5941 13.1975 13.5028 13.2175 13.4151C13.3246 12.9459 13.8437 13.2063 13.8437 13.6875C13.8437 13.9288 14.0401 14.125 14.2812 14.125C14.5224 14.125 14.7187 13.9288 14.7187 13.6875C14.7187 13.2066 15.2369 12.9468 15.3447 13.4155C15.3649 13.5032 15.375 13.5945 15.375 13.6875C15.375 14.2906 14.8844 14.7812 14.2812 14.7812ZM19.75 14.7812C19.1468 14.7812 18.6562 14.2906 18.6562 13.6875C18.6562 13.5941 18.6662 13.5028 18.6863 13.4151C18.7933 12.9459 19.3125 13.2063 19.3125 13.6875C19.3125 13.9288 19.5088 14.125 19.75 14.125C19.9912 14.125 20.1875 13.9288 20.1875 13.6875C20.1875 13.2066 20.7056 12.9468 20.8135 13.4155C20.8336 13.5032 20.8437 13.5945 20.8437 13.6875C20.8437 14.2906 20.3532 14.7812 19.75 14.7812Z" fill="url(#paint0_linear)"/>
<path d="M22.2653 11.8198C22.261 11.7628 22.2133 11.7188 22.1562 11.7188H20.7344C20.4323 11.7188 20.1875 11.4739 20.1875 11.1719C20.1875 9.42286 18.7645 8 17.0156 8C15.2667 8 13.8437 9.42286 13.8437 11.1719C13.8437 11.4739 13.5989 11.7188 13.2969 11.7188H11.875C11.8179 11.7188 11.7702 11.7628 11.7659 11.8198L11.0003 21.8823C10.998 21.9126 11.0084 21.9426 11.0292 21.9649C11.0499 21.9873 11.079 22 11.1094 22H22.9219C22.9523 22 22.9814 21.9873 23.002 21.965C23.0227 21.9427 23.0332 21.9127 23.0309 21.8824L22.2653 11.8198ZM14.7187 11.1719C14.7187 9.90542 15.749 8.875 17.0156 8.875C18.2822 8.875 19.3125 9.90542 19.3125 11.1719C19.3125 11.4739 19.0676 11.7188 18.7656 11.7188H15.2656C14.9636 11.7188 14.7187 11.4739 14.7187 11.1719ZM14.2812 14.7812C13.678 14.7812 13.1875 14.2906 13.1875 13.6875C13.1875 13.5941 13.1975 13.5028 13.2175 13.4151C13.3246 12.9459 13.8437 13.2063 13.8437 13.6875C13.8437 13.9288 14.0401 14.125 14.2812 14.125C14.5224 14.125 14.7187 13.9288 14.7187 13.6875C14.7187 13.2066 15.2369 12.9468 15.3447 13.4155C15.3649 13.5032 15.375 13.5945 15.375 13.6875C15.375 14.2906 14.8844 14.7812 14.2812 14.7812ZM19.75 14.7812C19.1468 14.7812 18.6562 14.2906 18.6562 13.6875C18.6562 13.5941 18.6662 13.5028 18.6863 13.4151C18.7933 12.9459 19.3125 13.2063 19.3125 13.6875C19.3125 13.9288 19.5088 14.125 19.75 14.125C19.9912 14.125 20.1875 13.9288 20.1875 13.6875C20.1875 13.2066 20.7056 12.9468 20.8135 13.4155C20.8336 13.5032 20.8437 13.5945 20.8437 13.6875C20.8437 14.2906 20.3532 14.7812 19.75 14.7812Z" fill="url(#paint1_linear)"/>
<defs>
<linearGradient id="paint0_linear" x1="17.0156" y1="8" x2="17.0156" y2="22" gradientUnits="userSpaceOnUse">
<stop stop-color="#FE5626"/>
<stop offset="1" stop-color="#F23F0E"/>
</linearGradient>
<linearGradient id="paint1_linear" x1="17.2228" y1="38.2055" x2="4.79062" y2="34.7869" gradientUnits="userSpaceOnUse">
<stop stop-color="#F58656"/>
<stop offset="1" stop-color="#FE5626"/>
</linearGradient>
</defs>
</svg>
